<svg id="Layer_1" enable-background="new 0 0 256 256" height="512" viewBox="0 0 256 256" width="512" xmlns="http://www.w3.org/2000/svg"><path d="m187.51 39.123c-7.537-.355-13.76 5.651-13.76 13.11v-17.629c0-7.067-5.431-13.148-12.49-13.481-7.537-.355-13.76 5.651-13.76 13.11v-13.345c0-7.067-5.431-13.148-12.49-13.481-7.537-.355-13.76 5.651-13.76 13.11v13.716c0-7.459-6.222-13.465-13.76-13.11-7.059.332-12.49 6.413-12.49 13.481v61.056 7.747 1.469l-5.77-9.408c-6.236-10.168-19.533-13.355-29.701-7.119-3.481 2.135-4.572 6.687-2.437 10.168l1.292 2.106 14.249 23.976 26.451 44.693c.522.93 1.102 1.822 1.711 2.692l.097.163.014-.005c2.986 4.212 6.967 7.664 11.594 10.029v66.437h70v-69.876c10.563-7.2 17.5-19.325 17.5-33.072v-42.253-7.747-43.056c0-7.068-5.431-13.149-12.49-13.481z" fill="#f9cfcf"/><path d="m147.5 105.407c-1.104 0-2-.896-2-2v-82.89c0-6.134-4.991-11.125-11.125-11.125s-11.125 4.991-11.125 11.125v82.89c0 1.104-.896 2-2 2s-2-.896-2-2v-82.89c0-8.34 6.785-15.125 15.125-15.125s15.125 6.785 15.125 15.125v82.89c0 1.105-.896 2-2 2z" fill="#3762cc"/><path d="m173.75 105.407c-1.104 0-2-.896-2-2v-69.174c0-6.134-4.991-11.125-11.125-11.125s-11.125 4.991-11.125 11.125v69.174c0 1.104-.896 2-2 2s-2-.896-2-2v-69.174c0-8.34 6.785-15.125 15.125-15.125s15.125 6.785 15.125 15.125v69.174c0 1.105-.896 2-2 2z" fill="#3762cc"/><path d="m200 105.407c-1.104 0-2-.896-2-2v-51.174c0-6.134-4.991-11.125-11.125-11.125s-11.125 4.991-11.125 11.125v51.174c0 1.104-.896 2-2 2s-2-.896-2-2v-51.174c0-8.34 6.785-15.125 15.125-15.125s15.125 6.785 15.125 15.125v51.174c0 1.105-.896 2-2 2z" fill="#3762cc"/><path d="m95 119.608c-1.104 0-2-.896-2-2v-83.375c0-8.34 6.785-15.125 15.125-15.125s15.125 6.785 15.125 15.125v69.174c0 1.104-.896 2-2 2s-2-.896-2-2v-69.174c0-6.134-4.991-11.125-11.125-11.125s-11.125 4.991-11.125 11.125v83.375c0 1.104-.896 2-2 2z" fill="#3762cc"/><g fill="#f9a7a7"><circle cx="101" cy="147.858" r="3.857"/><circle cx="108.125" cy="135.715" r="3.857"/><circle cx="113" cy="146.385" r="4.657"/><circle cx="171.544" cy="199.501" r="3.857"/><circle cx="162.482" cy="208.751" r="4.435"/><circle cx="173.75" cy="216.465" r="3.857"/><circle cx="150.75" cy="227.858" r="4.435"/><circle cx="190.732" cy="113.751" r="3.857"/><circle cx="125.107" cy="195.645" r="3.857"/><circle cx="134.375" cy="121.465" r="3.857"/><path d="m132.375 222.733c0-10.7-8.675-19.375-19.375-19.375-.169 0-.332.021-.5.025v38.699c.168.004.331.025.5.025 10.7.001 19.375-8.674 19.375-19.374z"/><path d="m200 144.967c-2.511-3.232-5.721-5.894-9.416-7.738-3.676-1.834-6.038-5.445-6.706-9.498-.128-.776-.308-1.561-.544-2.355-2.335-7.832-9.386-13.549-17.548-13.974-11.171-.581-20.41 8.304-20.41 19.348 0 .222.004.443.011.663.161 4.744-2.404 9.069-6.458 11.537-6.116 3.722-10.004 10.731-9.198 18.584.836 8.137 6.89 14.976 14.86 16.816 1.992.46 3.938.594 5.806.457 3.536-.26 7.026.885 9.659 3.26 5.377 4.851 12.686 7.601 20.637 6.946.609-.05 1.21-.127 1.807-.218v-10.063c10.563-7.2 17.5-19.325 17.5-33.072z"/></g><path d="m182.5 250.608h-70c-1.104 0-2-.896-2-2v-65.238c-4.362-2.435-8.175-5.829-11.091-9.882-.088-.097-.168-.205-.237-.321l-.059-.099c-.699-1.001-1.279-1.917-1.773-2.798l-26.428-44.653-15.525-26.054c-2.708-4.416-1.319-10.211 3.096-12.919 11.091-6.802 25.649-3.313 32.452 7.778l2.065 3.368v-63.186c0-8.299 6.324-15.098 14.396-15.478 4.185-.195 8.148 1.281 11.168 4.163.237.226.466.458.686.697v-3.468c0-4.175 1.664-8.062 4.686-10.945 3.021-2.881 6.992-4.358 11.167-4.163 8.073.38 14.396 7.179 14.396 15.478v3.097c.22-.238.449-.47.686-.696 3.021-2.881 6.991-4.358 11.167-4.163 8.073.38 14.396 7.179 14.396 15.478v7.381c.22-.238.449-.47.686-.696 3.021-2.881 6.991-4.358 11.167-4.163 8.075.379 14.399 7.178 14.399 15.478v93.057c0 13.546-6.522 26.218-17.5 34.113v68.835c0 1.103-.896 1.999-2 1.999zm-68-4h66v-67.876c0-.662.327-1.28.874-1.653 10.411-7.096 16.626-18.842 16.626-31.419v-93.056c0-6.159-4.649-11.203-10.585-11.483-3.07-.141-5.997.942-8.218 3.062-2.223 2.121-3.447 4.98-3.447 8.051 0 1.104-.896 2-2 2s-2-.896-2-2v-17.63c0-6.159-4.649-11.203-10.585-11.483-3.074-.14-5.997.943-8.218 3.062-2.223 2.121-3.447 4.98-3.447 8.051 0 1.104-.896 2-2 2s-2-.896-2-2v-13.346c0-6.159-4.649-11.203-10.585-11.483-3.07-.142-5.997.942-8.218 3.062-2.223 2.121-3.447 4.98-3.447 8.051v13.716c0 1.104-.896 2-2 2s-2-.896-2-2c0-3.071-1.224-5.93-3.447-8.051-2.222-2.119-5.14-3.202-8.219-3.062-5.935.279-10.584 5.323-10.584 11.483v70.273c0 .896-.595 1.682-1.457 1.925-.858.242-1.779-.115-2.248-.879l-5.77-9.409c-5.65-9.21-17.739-12.11-26.95-6.459-2.535 1.555-3.333 4.883-1.778 7.418l1.291 2.105 14.264 24 26.453 44.697c.461.822.987 1.647 1.628 2.563.02.028.039.057.057.086.016.021.031.042.046.063 2.799 3.948 6.559 7.2 10.873 9.405.669.342 1.09 1.03 1.09 1.781v64.435z" fill="#3762cc"/></svg>