<svg height="512pt" viewBox="0 0 512 512.0015" width="512pt" xmlns="http://www.w3.org/2000/svg"><path d="m446.335938 80.664062c-3.839844 0-7.675782-1.460937-10.605469-4.390624-5.859375-5.859376-5.859375-15.355469 0-21.214844l50.664062-50.664063c5.855469-5.859375 15.355469-5.859375 21.210938 0 5.859375 5.855469 5.859375 15.355469 0 21.210938l-50.664063 50.667969c-2.929687 2.925781-6.765625 4.390624-10.605468 4.390624zm0 0" fill="#3f4a4a"/><path d="m446.335938 80.664062c3.839843 0 7.679687-1.460937 10.605468-4.390624l50.664063-50.667969c5.859375-5.855469 5.859375-15.355469 0-21.210938l-71.875 71.875c2.929687 2.929688 6.765625 4.394531 10.605469 4.394531zm0 0" fill="#323c3c"/><path d="m425.121094 144.304688c-3.835938 0-7.675782-1.464844-10.605469-4.394532l-42.425781-42.425781c-5.859375-5.859375-5.859375-15.355469 0-21.210937l42.425781-42.429688c5.859375-5.855469 15.355469-5.855469 21.214844 0l42.425781 42.429688c2.8125 2.8125 4.394531 6.625 4.394531 10.605468 0 3.976563-1.582031 7.792969-4.394531 10.605469l-42.425781 42.425781c-2.929688 2.929688-6.769531 4.394532-10.609375 4.394532zm0 0" fill="#cde1e6"/><path d="m414.515625 139.910156c2.929687 2.929688 6.769531 4.394532 10.605469 4.394532 3.839844 0 7.679687-1.464844 10.605468-4.394532l42.429688-42.425781c2.8125-2.8125 4.394531-6.625 4.394531-10.605469 0-3.976562-1.582031-7.792968-4.394531-10.605468l-21.214844-21.214844-63.640625 63.640625zm0 0" fill="#bfd2d9"/><path d="m425.121094 229.15625c-3.976563 0-7.792969-1.578125-10.605469-4.394531l-127.28125-127.277344c-2.8125-2.8125-4.390625-6.625-4.390625-10.605469 0-3.976562 1.578125-7.792968 4.390625-10.605468l42.429687-42.425782c5.855469-5.859375 15.355469-5.859375 21.210938 0l127.28125 127.277344c5.855469 5.859375 5.855469 15.355469 0 21.214844l-42.425781 42.425781c-2.8125 2.8125-6.628907 4.390625-10.609375 4.390625zm0 0" fill="#e1ebf0"/><path d="m414.515625 224.765625c2.8125 2.8125 6.628906 4.394531 10.605469 4.394531 3.980468 0 7.792968-1.582031 10.605468-4.394531l42.425782-42.429687c5.859375-5.855469 5.859375-15.351563 0-21.210938l-63.636719-63.640625-63.640625 63.640625zm0 0" fill="#cde1e6"/><path d="m110.460938 480.179688c-3.839844 0-7.679688-1.464844-10.605469-4.394532l-63.640625-63.636718c-5.859375-5.859376-5.859375-15.355469 0-21.214844l70.710937-70.710938c5.855469-5.859375 15.355469-5.859375 21.210938 0l63.640625 63.640625c5.859375 5.855469 5.859375 15.355469 0 21.210938l-70.710938 70.710937c-2.929687 2.929688-6.769531 4.394532-10.605468 4.394532zm0 0" fill="#e1ebf0"/><path d="m99.851562 475.789062c2.929688 2.925782 6.769532 4.390626 10.609376 4.390626 3.835937 0 7.675781-1.460938 10.605468-4.390626l70.710938-70.710937c5.855468-5.859375 5.855468-15.355469 0-21.214844l-31.820313-31.820312-91.925781 91.925781zm0 0" fill="#cde1e6"/><path d="m142.277344 512c-3.835938 0-7.675782-1.464844-10.605469-4.394531l-127.277344-127.277344c-5.859375-5.859375-5.859375-15.355469 0-21.214844 5.855469-5.855469 15.355469-5.855469 21.210938 0l127.28125 127.28125c5.859375 5.855469 5.859375 15.355469 0 21.210938-2.929688 2.929687-6.769531 4.394531-10.609375 4.394531zm0 0" fill="#cde1e6"/><path d="m152.886719 486.394531-63.640625-63.640625-21.210938 21.214844 63.636719 63.640625c2.929687 2.925781 6.769531 4.390625 10.605469 4.390625 3.839844 0 7.679687-1.464844 10.609375-4.390625 5.859375-5.859375 5.859375-15.355469 0-21.214844zm0 0" fill="#bfd2d9"/><path d="m435.730469 203.550781-127.28125-127.277343c-5.855469-5.859376-15.355469-5.859376-21.214844 0l-212.128906 212.132812 148.492187 148.492188 212.132813-212.132813c5.855469-5.859375 5.855469-15.355469 0-21.214844zm0 0" fill="#00d7df"/><path d="m435.730469 203.550781-63.640625-63.640625-222.738282 222.742188 74.246094 74.246094 212.132813-212.132813c5.855469-5.859375 5.855469-15.355469 0-21.214844zm0 0" fill="#00c7ce"/><path d="m297.84375 235.371094 10.605469-10.605469c5.859375-5.859375 5.859375-15.355469 0-21.214844-5.855469-5.855469-15.355469-5.855469-21.210938 0l-10.609375 10.609375-10.605468-10.609375c-5.855469-5.855469-15.355469-5.855469-21.214844 0-5.855469 5.859375-5.855469 15.355469 0 21.214844l10.609375 10.605469-10.609375 10.605468c-5.855469 5.859376-5.855469 15.355469 0 21.214844 2.929687 2.929688 6.769531 4.394532 10.609375 4.394532 3.835937 0 7.675781-1.464844 10.605469-4.394532l10.605468-10.605468 10.605469 10.605468c2.929687 2.929688 6.769531 4.394532 10.609375 4.394532 3.835938 0 7.675781-1.464844 10.605469-4.394532 5.855469-5.859375 5.855469-15.355468 0-21.214844zm0 0" fill="#fc0023"/><path d="m255.417969 271.585938c3.839843 0 7.675781-1.464844 10.605469-4.394532l10.605468-10.609375 10.609375 10.609375c2.929688 2.929688 6.765625 4.394532 10.605469 4.394532 3.835938 0 7.675781-1.464844 10.605469-4.394532 5.859375-5.859375 5.859375-15.355468 0-21.214844l-10.605469-10.605468 10.605469-10.609375c5.859375-5.855469 5.859375-15.351563 0-21.210938l-63.640625 63.640625c2.929687 2.929688 6.769531 4.394532 10.609375 4.394532zm0 0" fill="#c9001c"/><path d="m234.203125 462.503906c-3.839844 0-7.679687-1.464844-10.605469-4.394531l-169.707031-169.703125c-5.855469-5.859375-5.855469-15.355469 0-21.214844 5.859375-5.859375 15.355469-5.859375 21.214844 0l169.703125 169.707032c5.859375 5.855468 5.859375 15.351562 0 21.210937-2.925782 2.929687-6.765625 4.394531-10.605469 4.394531zm0 0" fill="#cde1e6"/><path d="m223.597656 458.109375c2.929688 2.929687 6.769532 4.394531 10.605469 4.394531 3.839844 0 7.679687-1.464844 10.605469-4.394531 5.859375-5.859375 5.859375-15.355469 0-21.210937l-84.851563-84.855469-21.214843 21.214843zm0 0" fill="#bfd2d9"/></svg>